<?xml version="1.0" encoding="UTF-8"?>
<svg xmlns="http://www.w3.org/2000/svg" xmlns:xlink="http://www.w3.org/1999/xlink" width="30pt" height="20pt" viewBox="0 0 70 50" version="1.1">
<g id="surface1">
<path style=" stroke:none;fill-rule:evenodd;fill:rgb(0%,0%,0%);fill-opacity:1;" d="M 58.683594 33.878906 C 55.152344 33.878906 52.3125 37.5 52.3125 41.9375 C 52.3125 46.402344 55.171875 50 58.683594 50 C 62.210938 50 65.050781 46.378906 65.050781 41.9375 C 65.050781 37.476562 62.1875 33.878906 58.683594 33.878906 Z M 6.378906 29.351562 L 6.378906 22.859375 L 8.515625 22.859375 C 9.378906 22.859375 9.972656 23.105469 10.292969 23.605469 C 10.613281 24.101562 10.773438 24.9375 10.773438 26.101562 C 10.773438 27.273438 10.613281 28.101562 10.292969 28.601562 C 9.972656 29.101562 9.378906 29.351562 8.515625 29.351562 Z M 8.542969 24.519531 L 7.910156 24.519531 L 7.910156 27.6875 L 8.542969 27.6875 C 8.75 27.6875 8.902344 27.65625 8.996094 27.589844 C 9.09375 27.523438 9.140625 27.375 9.140625 27.140625 L 9.140625 25.070312 C 9.140625 24.835938 9.09375 24.683594 8.996094 24.617188 C 8.902344 24.554688 8.75 24.519531 8.542969 24.519531 Z M 14.476562 26.898438 L 12.953125 26.898438 L 12.953125 27.6875 L 14.824219 27.6875 L 14.824219 29.351562 L 11.421875 29.351562 L 11.421875 22.859375 L 14.785156 22.859375 L 14.59375 24.519531 L 12.953125 24.519531 L 12.953125 25.390625 L 14.476562 25.390625 Z M 18.640625 29.351562 L 15.585938 29.351562 L 15.585938 22.859375 L 17.113281 22.859375 L 17.113281 27.6875 L 18.640625 27.6875 Z M 19.175781 29.351562 L 19.175781 22.859375 L 20.703125 22.859375 L 20.703125 29.351562 Z M 24.191406 22.859375 L 25.800781 22.859375 L 24.617188 29.351562 L 22.386719 29.351562 L 21.203125 22.859375 L 22.8125 22.859375 L 23.464844 26.980469 L 23.53125 26.980469 Z M 29.355469 26.898438 L 27.828125 26.898438 L 27.828125 27.6875 L 29.699219 27.6875 L 29.699219 29.351562 L 26.296875 29.351562 L 26.296875 22.859375 L 29.660156 22.859375 L 29.46875 24.519531 L 27.828125 24.519531 L 27.828125 25.390625 L 29.355469 25.390625 Z M 34.625 29.351562 L 32.945312 29.351562 L 32.316406 27.417969 L 31.988281 27.417969 L 31.988281 29.351562 L 30.464844 29.351562 L 30.464844 22.859375 L 32.871094 22.859375 C 33.964844 22.859375 34.511719 23.617188 34.511719 25.132812 C 34.511719 26.171875 34.273438 26.855469 33.800781 27.1875 Z M 31.988281 24.519531 L 31.988281 25.820312 L 32.34375 25.820312 C 32.523438 25.820312 32.660156 25.789062 32.742188 25.742188 C 32.828125 25.6875 32.871094 25.570312 32.871094 25.382812 L 32.871094 24.953125 C 32.871094 24.765625 32.828125 24.648438 32.742188 24.597656 C 32.660156 24.546875 32.523438 24.519531 32.34375 24.519531 Z M 36.582031 22.859375 L 37.003906 25.140625 L 37.054688 25.140625 L 37.484375 22.859375 L 39.171875 22.859375 L 37.796875 27.585938 L 37.796875 29.351562 L 36.269531 29.351562 L 36.269531 27.585938 L 34.894531 22.859375 Z M 13.941406 15.335938 L 11.667969 15.335938 L 11.667969 19.265625 L 8.988281 19.265625 L 8.988281 8.675781 L 14.476562 8.675781 L 14.140625 11.386719 L 11.667969 11.386719 L 11.667969 12.808594 L 13.941406 12.808594 Z M 22.574219 19.265625 L 19.628906 19.265625 L 18.53125 16.113281 L 17.957031 16.113281 L 17.957031 19.265625 L 15.28125 19.265625 L 15.28125 8.675781 L 19.496094 8.675781 C 21.414062 8.675781 22.375 9.914062 22.375 12.386719 C 22.375 14.078125 21.960938 15.195312 21.128906 15.742188 Z M 17.957031 11.386719 L 17.957031 13.503906 L 18.570312 13.503906 C 18.894531 13.503906 19.125 13.460938 19.273438 13.378906 C 19.421875 13.292969 19.496094 13.097656 19.496094 12.792969 L 19.496094 12.101562 C 19.496094 11.792969 19.421875 11.597656 19.273438 11.515625 C 19.125 11.429688 18.894531 11.386719 18.570312 11.386719 Z M 28.867188 15.265625 L 26.1875 15.265625 L 26.1875 16.554688 L 29.46875 16.554688 L 29.46875 19.265625 L 23.511719 19.265625 L 23.511719 8.675781 L 29.402344 8.675781 L 29.066406 11.386719 L 26.1875 11.386719 L 26.1875 12.808594 L 28.867188 12.808594 Z M 35.960938 15.265625 L 33.285156 15.265625 L 33.285156 16.554688 L 36.5625 16.554688 L 36.5625 19.265625 L 30.605469 19.265625 L 30.605469 8.675781 L 36.496094 8.675781 L 36.164062 11.386719 L 33.285156 11.386719 L 33.285156 12.808594 L 35.960938 12.808594 Z M 54.601562 12.597656 L 45.039062 12.523438 L 45.039062 5.148438 C 45.039062 3.59375 44.957031 2.476562 44.019531 1.289062 C 43.394531 0.496094 42.53125 0 41.570312 0 L 3.480469 0 C 2.523438 0 1.660156 0.496094 1.035156 1.289062 C 0.0078125 2.585938 0.0351562 3.660156 0.0351562 5.210938 L 0.0351562 39.558594 C 0.0351562 40.75 0.425781 41.890625 1.054688 42.707031 C 1.679688 43.527344 2.542969 44.046875 3.503906 44.046875 L 16.378906 44.046875 C 16.90625 44.046875 17.320312 43.5 17.320312 42.855469 C 17.320312 42.1875 16.886719 41.667969 16.378906 41.667969 L 3.503906 41.691406 C 3.070312 41.691406 2.699219 41.445312 2.402344 41.070312 C 2.113281 40.675781 1.917969 40.128906 1.917969 39.558594 L 1.917969 4.078125 C 1.96875 3.648438 2.128906 3.257812 2.367188 2.976562 C 2.660156 2.605469 3.054688 2.382812 3.480469 2.382812 L 41.570312 2.382812 C 42.003906 2.382812 42.394531 2.605469 42.6875 2.976562 C 43.242188 3.679688 43.15625 4.382812 43.15625 5.273438 L 43.15625 41.667969 L 35.742188 41.667969 C 35.214844 41.667969 34.800781 42.1875 34.800781 42.855469 C 34.800781 43.5 35.214844 44.046875 35.742188 44.046875 L 44.097656 44.046875 C 44.628906 44.046875 45.039062 43.527344 45.039062 42.855469 L 45.039062 41.492188 L 50.726562 41.492188 C 51.15625 29.09375 65.207031 27.382812 66.636719 41.492188 L 69.734375 41.492188 C 70.144531 38.742188 69.992188 35.523438 69.425781 31.992188 C 68.765625 27.859375 68.957031 28.660156 65.910156 27.183594 L 59.695312 23.660156 Z M 52.152344 15.996094 L 47.410156 15.921875 L 47.410156 23.660156 L 55.367188 23.660156 Z M 25.941406 33.878906 C 22.414062 33.878906 19.574219 37.5 19.574219 41.9375 C 19.574219 46.402344 22.433594 50 25.941406 50 C 29.472656 50 32.3125 46.378906 32.3125 41.9375 C 32.3125 37.476562 29.453125 33.878906 25.941406 33.878906 Z M 25.941406 38.839844 C 24.589844 38.839844 23.492188 40.226562 23.492188 41.9375 C 23.492188 43.652344 24.589844 45.039062 25.941406 45.039062 C 27.296875 45.039062 28.390625 43.652344 28.390625 41.9375 C 28.390625 40.226562 27.296875 38.839844 25.941406 38.839844 Z M 58.683594 38.839844 C 57.328125 38.839844 56.230469 40.226562 56.230469 41.9375 C 56.230469 43.652344 57.328125 45.039062 58.683594 45.039062 C 60.03125 45.039062 61.128906 43.652344 61.128906 41.9375 C 61.128906 40.226562 60.03125 38.839844 58.683594 38.839844 Z M 58.683594 38.839844 "/>
</g>
</svg>
